Patient4_TMGait_0pt5_01_right_06_EMG.mot
version=1
nRows=40
nColumns=33
inDegrees=no
endheader
time	1LAddLong	2LGlutMax	3LGlutMed	4LIliopsoas	5LSemiMemb	6LBicFemLong	7LRecFem	8LVastMed	9LVastLat	10LGasMed	11LTibAnt	12lTibPost	13LPeroneusLong	14LSol	15LExtDigLong	16LFlexDigLong	17RAddLong	18RGlutMax	19RGlutMed	20RIliopsoas	21RSemiMemb	22RBicFemLong	23RRecFem	24RVastMed	25RVastLat	26RGasMed	27RTibAnt	28RTibPost	29RPeroneusLong	30RSol	31RExtDigLong	32RFlexDigLong
8.28	-0.000153	0.082092	0.005951	0.010376	-0.037079	0.090942	0.091858	-0.021362	-0.10422	-0.016937	0.008545	0.001221	-0.40604	0.052643	-0.092316	-0.003052	-0.002441	0.13748	-0.045013	0.052795	-0.011902	-0.006561	-0.20889	0.1918	0.093689	-0.002594	0.49774	0.007172	-0.15762	-0.06958	-0.000458	-0.013428
8.281	0.016785	0.04715	0.004272	0.009155	0.045013	0.06897	0.086212	-0.027008	-0.093079	-0.003662	0.024872	0.000153	-0.47943	-0.028534	-0.09079	-0.009918	-0.001831	0.12207	-0.041046	0.017548	-0.012207	-0.003052	-0.31876	-0.003815	0.19089	-0.001068	0.50858	-0.002289	1.0155	-0.18601	0.001221	-0.007477
8.282	0.024719	0.027008	0.023346	0.002594	0.16098	-0.03067	0.10101	-0.014191	-0.04364	-0.02655	0.002136	0.003052	0.050201	-0.027313	-0.047913	-0.003662	0.005188	0.090027	-0.004272	-0.013123	-0.032654	0.024872	-0.2536	-0.067596	0.18768	0.008698	0.36072	-0.007935	1.6884	-0.16373	-0.003052	-0.013123
8.283	0.005798	0.03067	0.038757	0.014343	0.15793	0.080719	0.1445	-0.006561	-0.034485	-0.041656	-0.021362	-0.002899	0.345	-0.013123	-0.033417	0.000763	0.002899	0.048676	-0.029755	-0.025177	-0.030975	0.053253	-0.19775	-0.031281	0.10941	0.008392	-0.10498	-0.001678	-0.83237	-0.13229	-0.003662	-0.00946
8.284	-0.011444	0.026703	0.066986	0.005035	0.058746	0.21484	0.15442	0.000916	-0.040894	-0.023804	-0.007172	0.001984	0.12772	0.010986	0.030365	-0.000153	0.001526	0.069122	-0.054474	-0.031738	-0.038147	0.02182	-0.18951	-0.056	0.044861	0.005188	-0.047913	0.002289	-1.0432	0.073242	-0.002441	-0.012665
8.285	-0.003204	0.057526	0.066071	0.004272	0.043182	0.1178	0.103	0.002441	0.079651	-0.013123	0.0177	0.001373	-0.14008	0.014191	0.059052	-0.007477	-0.001373	0.099182	0.040741	-0.048981	-0.028381	-0.006256	-0.19836	0.00885	0.029297	-0.008087	0.10178	-0.008087	-1.3396	0.15579	-0.001831	-0.014038
8.286	0.006714	0.13702	0.055084	0.008698	0.12863	0.06897	0.049896	0.007477	0.20462	-0.002747	0.00885	0.003204	-0.054779	0.000305	0.021362	-0.011902	-0.000153	0.028839	-0.1004	-0.018158	-0.015106	-0.018158	-0.18494	-0.05127	0.013733	-0.015106	0.13565	-0.007019	-0.65369	0.2504	0.000305	-0.021057
8.287	0.003967	0.040283	0.030518	-0.010986	0.033264	0.18799	0.040741	0.000458	0.18539	0.014343	0.026093	0.001678	-0.042419	0.015564	-0.005646	-0.001068	0.010223	-0.031281	-0.1178	0.037231	-0.020142	-0.037231	-0.18936	-0.030975	0.019836	-0.006104	-0.37735	-0.003967	0.83206	0.091705	-0.001526	-0.014038
8.288	-0.005798	0.034332	-0.040436	0.005188	-0.038757	0.19699	-0.020142	-0.002289	0.08255	0.048218	0.026703	0.001068	-0.080109	-0.044708	-0.052643	-0.002747	0.002289	0.016479	-0.064697	-0.002136	-0.01358	-0.011597	-0.19196	-0.046692	0.017242	0.007019	-0.75409	-0.007172	0.54245	0.045776	0.000153	-0.005951
8.289	-0.005798	0.038605	0.044556	0.005951	-0.010071	0.31708	-0.096893	-0.006561	-0.036011	0.05249	0.00351	0.001373	-0.00351	-0.066376	-0.099487	-0.007324	0.001678	-0.016785	-0.059204	-0.035553	0.001831	0.028992	-0.16617	-0.01709	0.02121	0.013123	-0.82092	-0.000458	0.56168	0.055695	-0.000153	-0.009613
8.29	-0.005188	-0.008698	0.14297	-0.001678	0.044556	0.54489	-0.16373	-0.005341	-0.046692	0.045471	-0.013885	0.002594	0.019073	-0.020599	-0.057068	-0.002136	-0.007019	0.041962	0.053253	-0.082245	0.033417	0.036469	-0.16602	-0.013123	0.005341	0.00885	-0.26749	-0.003204	0.040894	-0.020294	0.002594	-0.007019
8.291	-0.006409	0.000458	0.14893	0.012054	0.058899	0.6839	-0.1181	-0.004272	-0.04776	0.044098	-0.007477	0.00351	-0.011444	0.007629	0.032959	0.002289	-0.000763	0.076141	0.04425	-0.037079	0.036011	0.081482	-0.14801	-0.004425	0.023499	-0.012665	0.062256	0.001984	-0.08255	0.081177	-0.002289	-0.005493
8.292	-0.02594	0.048523	0.11078	0.001373	0.056763	0.62088	-0.048065	0.002441	-0.1268	0.040283	-0.006561	0.000916	-0.031738	0.018921	0.076294	-0.003967	-0.002747	0.13489	-0.032196	-0.003052	0.001221	0.095215	-0.098572	-0.071716	-0.027771	-0.018158	0.30548	-0.005188	-0.16403	0.15503	-0.000305	-0.01297
8.293	-0.029449	0.054932	0.1535	0.016174	0.00061	0.10223	0.056305	0.011749	-0.25803	0.031738	-0.009155	0.003662	-0.048981	0.039063	0.049591	-0.007019	0.005035	0.12665	-0.068665	0.073547	-0.00885	0.053406	-0.16098	-0.03067	-0.012817	-0.01709	0.37109	-0.003052	-0.15701	0.23254	-0.00061	-0.015259
8.294	-0.046844	0.042419	0.14069	0.001221	-0.023651	-0.20126	0.078125	0.005341	-0.15762	0.031281	0.00351	0.000916	-0.010834	0.033569	0.00351	-0.016937	-0.006714	0.14938	0.052948	0.11871	-0.011749	-0.040283	-0.1738	-0.027008	0.025635	-0.012207	0.1503	-0.006866	0.10681	0.2272	0.001678	-0.016327
8.295	-0.055389	0.014954	0.060272	0.006104	-0.11536	-0.05249	0.12222	0.017395	-0.052795	0.025635	0.024872	0.007172	0.012512	-0.018768	-0.001373	-0.006104	0.001831	0.16113	0.20798	0.006714	-0.031738	-0.030823	-0.16678	-0.046997	0.03479	-0.00473	0.20966	-0.000916	0.10895	0.086823	-0.002136	-0.006256
8.296	-0.048676	-0.017395	0.042114	0.013123	-0.16266	-0.078888	0.075836	0.042877	0.079651	0.06073	0.046997	0.00412	-0.023499	-0.036621	0.032959	-0.004578	0.003357	0.13504	0.23758	-0.083008	-0.020752	0.019684	-0.15396	-0.012054	0.029907	0.000763	0.46326	-0.001373	0.12146	0.002747	-0.00061	-0.003357
8.297	-0.040588	-0.054932	-0.037689	-0.006866	-0.20584	-0.39825	0.055695	0.011597	0.071716	0.08194	0.055695	0.006561	-0.079193	-0.022583	0.059509	-0.013123	-0.001221	0.16037	-0.097198	-0.036469	0.00473	0.040131	-0.15518	-0.041351	0.01358	0.002594	0.42755	-0.000153	0.76355	-0.13916	0	-0.014648
8.298	-0.042267	-0.01236	-0.077209	0.012817	-0.28641	-0.8522	0.00946	0.053253	0.050812	0.068512	0.04776	0.015411	-0.082703	-0.006561	0.053253	0.00473	-0.000305	0.2002	-0.25421	-0.01709	0.029144	0.041809	-0.12985	-0.007172	0.01297	0.000153	0.47577	-0.002899	1.156	-0.13367	-0.000916	-0.012207
8.299	0.006561	-0.036469	-0.089417	0.007324	-0.15778	-1.1252	-0.029144	0.037537	0.088348	0.050201	0.039825	0.010986	-0.030823	-0.027313	0.05127	0.001221	0.002594	0.14954	-0.036926	0.039215	0.018158	0.070953	-0.12054	-0.007477	0.020752	-0.014801	0.74112	-0.004578	0.4924	0.033417	-0.001831	-0.014496
8.3	0.041199	-0.034027	-0.079498	0.016785	0.0914	-0.84381	-0.021057	-0.001221	0.041351	0.021362	-0.027161	0.002441	0.028839	-0.03418	0.016479	0.005188	-0.000153	0.13229	0.033264	0.080872	0.045013	0.050812	-0.10544	0.013123	0.015106	-0.018158	0.91644	-0.011902	-0.27161	0.051422	-0.000305	-0.013428
8.301	0.053558	-0.045013	-0.058594	-0.001068	0.15823	-0.69427	0.049744	-0.028229	-0.084076	0.037079	-0.009918	-0.002136	0.024719	0.007629	0.047455	-0.004883	0.004425	0.13916	0.14236	-0.016785	0.050812	0.018311	-0.13062	0.000305	0.010071	-0.020447	0.30289	-0.002594	-1.2871	-0.054474	-0.001068	-0.015259
8.302	0.066376	0.01297	0.024109	0.014801	0.18997	-0.37186	0.040436	-0.038757	-0.19501	0.034637	-0.047607	0.006866	-0.022125	0.008698	0.013428	-0.001068	0.006409	0.17334	0.15289	-0.10712	0.042725	-0.079041	-0.13916	-0.016937	0.003662	0.000305	-0.65018	-0.007172	-0.99136	-0.13062	0.000916	-0.011749
8.303	0.068665	0.056458	-0.009003	0.001221	0.14069	-0.001373	0.075836	-0.045929	-0.16632	0.058746	-0.066833	0.000458	-0.055695	0.006561	-0.02243	0.005646	0.000305	0.12878	0.15091	-0.16708	0.031738	-0.11917	-0.13031	-0.030823	-0.03067	-0.00412	-0.94437	-0.009613	-0.70816	-0.064392	0.001984	-0.010223
8.304	0.04425	0.083618	0.035553	0.001984	0.054016	0.13077	0.023499	-0.038605	-0.10239	0.028687	-0.044403	-0.004425	-0.1294	0.018921	-0.026703	-0.002747	0.000763	0.066376	0.21545	-0.11871	0.028534	-0.074463	-0.15091	-0.041046	-0.039063	0.004272	-0.44357	-0.014343	-0.91156	0.031433	0	-0.013885
8.305	0.048065	0.089111	0.039063	0.001526	0.024872	0.15182	-0.048218	-0.019989	-0.007172	0.005646	-0.022278	0.008087	-0.089722	0.028839	0.011749	-0.005341	0.006104	0.060577	0.054779	-0.089874	0.009766	-0.039978	-0.1236	-0.054474	-0.046692	0.023499	-0.80139	-0.018158	0.64758	0.030823	0.002747	-0.019684
8.306	0.036316	0.090332	0.07843	-0.010376	-0.008087	0.12802	-0.055084	0.011749	0.19318	-0.017395	-0.077209	0.019379	0.030212	0.008698	0.002899	-0.001984	0.011902	0.017853	0.09491	0.002136	0.008392	-0.0354	-0.11993	-0.047302	-0.064697	0.018005	-0.84335	-0.009613	0.90561	0.10437	-0.002441	-0.021973
8.307	0.019379	0.040588	0.060883	0.003204	0.033722	0.045776	0.012054	0.023499	0.34866	-0.007782	-0.071259	0.014191	0.076447	-0.000305	-0.011139	-0.002747	0.004578	-0.017242	0.10346	0.10437	0.013885	-0.00946	-0.13443	-0.013733	-0.042114	0.006409	-0.62622	-0.008545	0.75928	0.028839	0.00061	-0.022278
8.308	0.007935	0.0177	0.058746	0.00473	0.075684	0.039368	0.036316	0.033112	0.46493	0.012817	-0.010986	0.006409	0.011292	-0.057678	-0.082855	0.000153	0.014343	-0.086975	0.26977	0.070343	0.004883	0.020752	-0.16922	-0.042267	-0.046997	-0.00351	-0.57205	-0.006561	0.35889	-0.14313	0.001221	-0.027618
8.309	-0.005035	-0.028534	0.077057	0.003204	0.065155	0.062714	0.079193	0.020447	0.47394	0.011444	-0.000305	0.004425	-0.02182	-0.076904	-0.16052	-0.001068	0.010071	-0.12955	0.46341	0.026703	-0.00946	-0.02243	-0.15366	-0.072479	-0.036163	-0.007629	0.16251	-0.006409	-0.30273	-0.21088	0.003967	-0.021667
8.31	-0.019379	0.001221	0.027771	-0.007629	0.038605	0.12985	0.083008	0.006866	0.43243	0.011292	0.046387	0.006256	0.013885	-0.056152	-0.062714	-0.017853	0.010529	-0.121	0.19852	-0.012512	-0.008698	-0.056763	-0.18799	-0.072937	-0.036011	-0.000916	0.47012	-0.008545	-0.32349	-0.29282	0.006714	-0.016785
8.311	-0.021057	-0.032196	0.054474	-0.010223	0.048523	0.1709	0.045776	-0.007477	0.21423	0.011902	0.066223	0.007019	-0.009613	-0.038147	-0.076141	-0.006409	0.003662	-0.18982	-0.071564	-0.080566	-0.007324	-0.063171	-0.20355	-0.045929	-0.042114	-0.00473	0.39764	-0.003815	-0.23987	-0.27573	-0.000916	-0.012512
8.312	-0.027466	-0.077667	0.020142	0.00824	0.007324	0.25055	0.055847	-0.019226	0.00473	0.052185	0.009308	0.001526	-0.041962	-0.061035	0.066986	-0.015717	0.018921	-0.26352	-0.098877	-0.17639	-0.002441	-0.04303	-0.22415	-0.024719	-0.035858	-0.007324	0.073853	-0.010834	0.71106	-0.035858	0.000763	-0.019379
8.313	-0.045624	-0.093689	0.067596	0.005798	-0.080566	0.3537	0.17273	-0.028076	-0.27359	0.053558	-0.022125	0.009003	-0.070038	-0.049591	0.26382	-0.008392	0.01297	-0.20493	0.00946	-0.10819	0.001831	-0.043182	-0.19653	-0.027161	-0.068054	-0.012817	0.23422	-0.005035	1.6356	0.18066	0.001221	-0.026398
8.314	-0.049286	-0.090027	0.065918	0.016327	-0.17654	0.30548	0.1767	0.002441	-0.40802	0.04425	0.060425	-0.000763	-0.049286	0.044861	0.016174	-0.016785	0.013123	-0.20248	0.20126	0.079346	0.016327	-0.010834	-0.22156	-0.06424	-0.059814	-0.009766	0.31403	-0.004425	1.633	0.063782	0.005188	-0.022278
8.315	-0.060272	0.021515	0.05722	0.013428	-0.24597	0.23331	0.1001	0.026245	-0.37216	0.023041	0.21149	0.000153	-0.034943	0.10574	-0.11047	-0.011597	0.01709	-0.23056	0.23392	0.29846	0.010376	-0.065308	-0.19745	-0.041046	-0.035553	0.00885	0.052032	-0.00412	-0.20905	-0.14282	0.00061	-0.012817
8.316	-0.021057	0.1294	0.071411	0.007782	-0.17303	0.2507	0.091248	0.034332	-0.16007	0.014496	0.30487	0.009613	-0.002899	0.12405	0.015869	-0.001984	0.011749	-0.2507	0.04364	0.37689	0.001221	-0.065002	-0.17349	-0.047913	-0.019989	0.012817	-0.55908	-0.003357	-0.30762	-0.26184	0.003967	-0.015717
8.317	-0.014648	0.20157	0.000153	0.017395	-0.014191	0.1152	0.12741	0.032654	-0.19028	0.032043	0.36179	-0.004272	0.022278	0.11917	1.0312	-0.016937	0.008698	-0.29236	0.018616	0.215	0.016937	-0.059662	-0.16754	-0.042419	-0.014496	0.009918	-0.88287	-0.003815	0.79178	-0.13672	0.003815	-0.012665
8.318	0.005341	0.26169	-0.016785	-0.002747	0.13504	0.017548	0.15427	0.019684	-0.44464	0.046997	0.45105	0.007935	-0.022583	0.15457	0.57068	-0.013275	0.018463	-0.25207	0.041656	0.1062	0.011902	-0.083618	-0.19821	-0.031891	-0.005341	0.016327	-0.94223	-0.003815	0.10346	-0.084686	0.000458	-0.023346
8.319	0.019836	0.28122	0.051117	0.00885	0.11459	-0.046539	0.071106	0.015564	-0.551	0.03006	0.15518	-0.001678	-0.083008	0.17151	0.35736	-0.001678	0.017548	-0.2211	0.083313	0.058441	0.020905	-0.10452	-0.21133	0.009918	0.003967	0.02182	-0.78522	-0.006561	-0.17517	-0.029755	0.002441	-0.012817
